<svg id="Capa_1" data-name="Capa 1" xmlns="http://www.w3.org/2000/svg" viewBox="0 0 1126.47 462.91"><defs><style>.cls-1,.cls-64{fill:#4fbf8c;}.cls-2{fill:#35495e;}.cls-3{fill:#f7d955;}.cls-4{fill:#fff;stroke:#000;}.cls-4,.cls-64{stroke-miterlimit:10;}.cls-5{fill:#287abb;}.cls-6{fill:#92d5f7;}.cls-7{fill:#91d5f7;}.cls-8{fill:#3e3b2a;}.cls-9{fill:#3c3928;}.cls-10{fill:#45402a;}.cls-11{fill:#4e4a34;}.cls-12{fill:#383422;}.cls-13{fill:#4c472d;}.cls-14{fill:#5d5945;}.cls-15{fill:#423f2f;}.cls-16{fill:#433f2a;}.cls-17{fill:#4d4a30;}.cls-18{fill:#403d28;}.cls-19{fill:#c7bd7e;}.cls-20{fill:#5d5633;}.cls-21{fill:#555136;}.cls-22{fill:#b7b166;}.cls-23{fill:#928749;}.cls-24{fill:#4a462f;}.cls-25{fill:#3f3a24;}.cls-26{fill:#6b685b;}.cls-27{fill:#2c2610;}.cls-28{fill:#64625d;}.cls-29{fill:#3f3b2a;}.cls-30{fill:#978e4a;}.cls-31{fill:#555241;}.cls-32{fill:#c5c3ab;}.cls-33{fill:#bfb984;}.cls-34{fill:#635c39;}.cls-35{fill:#524e33;}.cls-36{fill:#383524;}.cls-37{fill:#736841;}.cls-38{fill:#373322;}.cls-39{fill:#423e27;}.cls-40{fill:#b7ad5e;}.cls-41{fill:#5e5922;}.cls-42{fill:#6d653c;}.cls-43{fill:#443f27;}.cls-44{fill:#5e582c;}.cls-45{fill:#323027;}.cls-46{fill:#666348;}.cls-47{fill:#363215;}.cls-48{fill:#46412c;}.cls-49{fill:#6f684a;}.cls-50{fill:#8b8561;}.cls-51{fill:#49452e;}.cls-52{fill:#c0ad43;}.cls-53{fill:#978c3b;}.cls-54{fill:#5b5636;}.cls-55{fill:#3b361f;}.cls-56{fill:#c2ac42;}.cls-57{fill:#776e44;}.cls-58{fill:#484430;}.cls-59{fill:#cac15b;}.cls-60{fill:#6d6436;}.cls-61{fill:#3b3722;}.cls-62{fill:#9e933d;}.cls-63{fill:#756e2a;}.cls-64{font-size:23.15px;stroke:#354959;stroke-width:0.75px;font-family:ArialRoundedMTBold, Arial Rounded MT Bold;letter-spacing:0.01em;}.cls-65{fill:#fdfdfd;}</style></defs><path class="cls-1" d="M119.64,11.48l.76,0h26.85c-.55.82-.82,1.67-1.39,2.4a26.16,26.16,0,0,0-1.33,2.31c-.68,1.09-1.2,2.29-1.93,3.32s-1.23,2.35-2.07,3.39c-.58.72-.85,1.66-1.38,2.43-.8,1.16-1.28,2.5-2.17,3.61a10.09,10.09,0,0,0-.72,1.34c-.78,1.35-1.53,2.73-2.37,4s-1.41,2.4-2.12,3.57c-1,1.62-1.93,3.28-2.89,4.92a34.7,34.7,0,0,1-2.27,3.78c-.52.67-.8,1.54-1.29,2.25-.81,1.2-1.33,2.57-2.22,3.72a13.28,13.28,0,0,0-.76,1.39c-1,1.76-2.17,3.47-3.13,5.27s-1.9,3.29-2.85,4.92a25.15,25.15,0,0,1-2,3.28,19.13,19.13,0,0,0-1.14,2c-.7,1.11-1.25,2.31-2,3.37s-1.27,2.42-2.13,3.5c-.54.69-.82,1.59-1.31,2.32-.83,1.21-1.39,2.58-2.27,3.77-.47.65-.75,1.42-1.17,2.11-.66,1.07-1.19,2.24-1.92,3.26s-1.39,2.35-2.09,3.51c-1,1.62-1.92,3.28-2.88,4.9a41.46,41.46,0,0,1-2.3,3.84c-.54.72-.83,1.63-1.35,2.37-.8,1.13-1.27,2.46-2.14,3.55a8.58,8.58,0,0,0-.72,1.34c-.76,1.38-1.56,2.76-2.41,4.08a27,27,0,0,1-2.19,3.6,9.25,9.25,0,0,0-.75,1.39c-1,1.66-2.06,3.28-3,5s-2,3.27-2.86,5c-.35.7-.9,1.31-1.22,2-.15.35-.27.12-.37-.05-.54-.9-1.07-1.8-1.59-2.72-1-1.83-2.17-3.6-3.2-5.43-.68-1.19-1.44-2.32-2.08-3.53a35.47,35.47,0,0,0-2.1-3.59c-.73-1.06-1.31-2.21-2-3.3-1-1.71-2-3.46-3-5.18a37.92,37.92,0,0,0-2.17-3.61c-.59-.76-.89-1.74-1.44-2.53-.8-1.14-1.27-2.46-2.14-3.55a11.2,11.2,0,0,1-.69-1.28c-.81-1.38-1.57-2.81-2.44-4.14-.75-1.16-1.4-2.39-2.12-3.57-1-1.63-1.94-3.31-2.91-5a36.23,36.23,0,0,0-2.27-3.77c-.54-.7-.82-1.58-1.32-2.32-.78-1.16-1.3-2.48-2.16-3.61A10.19,10.19,0,0,1,43.92,70c-.82-1.46-1.66-2.91-2.54-4.31a34.3,34.3,0,0,0-2.05-3.39c-.57-.72-.86-1.66-1.38-2.43-.79-1.16-1.29-2.5-2.16-3.61A9,9,0,0,1,35.12,55c-.8-1.42-1.63-2.81-2.45-4.21-1.18-2-2.38-4-3.56-6s-2.2-3.83-3.37-5.71c-.64-1-1.19-2.13-1.83-3.16-1.27-2-2.38-4.12-3.64-6.14-.75-1.21-1.48-2.44-2.18-3.68-1-1.7-2-3.39-3-5.07a25.63,25.63,0,0,0-2-3.29,20.51,20.51,0,0,1-1.25-2.2c-.66-1.09-1.33-2.16-1.89-3.29a4.19,4.19,0,0,0-.47-.66c.05-.18.21-.11.32-.11H36.78a7.41,7.41,0,0,1,1.37,2.06c1.36,2.38,2.82,4.7,4.17,7.08,1.14,2,2.38,4,3.51,6,.71,1.26,1.45,2.5,2.2,3.73.93,1.55,1.81,3.12,2.76,4.66s2,3.33,3,5,1.9,3.23,2.83,4.84c.71,1.23,1.38,2.49,2.19,3.66.53.76.88,1.65,1.41,2.43.83,1.23,1.5,2.55,2.26,3.83.93,1.57,1.88,3.13,2.78,4.72.75,1.3,1.49,2.62,2.31,3.88.52.8.9,1.69,1.44,2.48.82,1.19,1.48,2.48,2.21,3.72,1,1.66,1.93,3.35,2.94,5,.76,1.25,1.4,2.57,2.25,3.77.52.74.89,1.59,1.35,2.38a1.59,1.59,0,0,0,.13.22c.15.22.25.6.52.59s.29-.42.45-.64c1-1.41,1.76-2.95,2.63-4.43,1-1.63,1.92-3.26,2.86-4.9,1.19-2.1,2.43-4.18,3.65-6.27,1-1.65,2-3.26,2.91-4.93.71-1.26,1.46-2.49,2.19-3.73.83-1.44,1.67-2.86,2.51-4.29s1.73-3,2.61-4.45q1.46-2.46,2.9-4.94l3.67-6.26c1.22-2.09,2.45-4.18,3.66-6.27s2.38-4.07,3.56-6.11,2.43-4.18,3.65-6.26,2.39-4,3.49-6A1.1,1.1,0,0,1,119.64,11.48Z" transform="translate(-9.53 -11.44)"/><path class="cls-2" d="M119.64,11.48c-1,2-2.15,3.78-3.22,5.67-1.17,2.05-2.37,4.1-3.58,6.12-1.1,1.83-2.14,3.69-3.25,5.51-.65,1.06-1.16,2.23-1.87,3.23s-1.42,2.4-2.13,3.58c-1,1.63-1.93,3.29-2.88,4.93a44.2,44.2,0,0,1-2.26,3.8c-.52.72-.84,1.58-1.33,2.32-.79,1.17-1.33,2.48-2.16,3.63-.46.63-.73,1.4-1.15,2-.91,1.38-1.7,2.82-2.51,4.25-1,1.82-2.1,3.62-3.14,5.43-.71,1.23-1.48,2.46-2.19,3.69-1,1.68-2,3.37-2.94,5a28.27,28.27,0,0,1-2,3.41c-.58.74-.88,1.7-1.41,2.48-.8,1.17-1.29,2.51-2.17,3.63a10.1,10.1,0,0,0-.79,1.45c-.12.23-.22.26-.39,0-.61-.85-1-1.81-1.61-2.66-.88-1.29-1.42-2.77-2.41-4a4.65,4.65,0,0,1-.37-.74c-.89-1.59-1.84-3.14-2.75-4.71C70,67.81,69,66,67.86,64.24c-.85-1.33-1.62-2.72-2.41-4.08-1-1.64-1.91-3.3-2.89-4.92a28.84,28.84,0,0,0-2.23-3.68,17.48,17.48,0,0,1-1.11-2c-.86-1.45-1.82-2.85-2.6-4.33-.91-1.75-2-3.42-3-5.11a24.29,24.29,0,0,0-2.14-3.5,13.17,13.17,0,0,1-1.05-1.88c-.91-1.55-1.91-3-2.75-4.62s-1.85-3.23-2.81-4.81c-.73-1.2-1.44-2.43-2.16-3.63-1-1.61-1.89-3.25-2.85-4.87A35.52,35.52,0,0,0,37.61,13a11.13,11.13,0,0,1-.83-1.57h24.9a.83.83,0,0,1,.9.5,54.26,54.26,0,0,0,3,5.06,21.67,21.67,0,0,0,2.08,3.42,7.19,7.19,0,0,1,.7,1.28c.79,1.34,1.54,2.71,2.39,4,.75,1.13,1.39,2.34,2.1,3.49,1,1.62,2,3.29,2.94,4.93A24.16,24.16,0,0,0,78,37.82a4.13,4.13,0,0,1,.41.73c.83-1.65,1.8-3.18,2.73-4.71.72-1.2,1.4-2.43,2.12-3.62.95-1.56,1.85-3.16,2.77-4.74a43.63,43.63,0,0,1,2.41-4.05c.54-.74.81-1.68,1.35-2.43.82-1.12,1.28-2.43,2.12-3.54a22.41,22.41,0,0,0,1.52-2.71c.22-.38.47-.73.69-1.11s.45-.18.69-.18q9.12,0,18.25,0Z" transform="translate(-9.53 -11.44)"/><path class="cls-1" d="M107.38,233.21a3.47,3.47,0,0,0,.64,1.64,21.38,21.38,0,0,1,1,2c.74,1.54,1.54,3.06,2.33,4.57.64,1.24,1.17,2.53,1.85,3.74,1,1.84,1.94,3.74,2.9,5.61,1.11,2.16,2.25,4.3,3.3,6.49.81,1.69,1.68,3.36,2.53,5,.93,1.84,1.85,3.69,2.81,5.52.74,1.42,1.41,2.88,2.17,4.29.63,1.17,1.16,2.39,1.79,3.56s1.27,2.67,2,4c1,1.84,2,3.73,2.91,5.61.8,1.6,1.56,3.22,2.4,4.81.31.59.67,1.16.95,1.84h-.74q-17.06,0-34.09,0a1.23,1.23,0,0,1-1.26-.8c-.21-.44-.39-.9-.61-1.33-.8-1.56-1.56-3.14-2.38-4.69-.92-1.75-1.8-3.52-2.7-5.28l-2.56-5.09c-.93-1.88-1.9-3.75-2.88-5.62-.84-1.6-1.63-3.24-2.45-4.84-.93-1.79-1.83-3.6-2.76-5.38-.75-1.44-1.43-2.91-2.19-4.34-.64-1.19-1.19-2.42-1.81-3.6s-1.31-2.64-2-3.94c-.29-.57-.62-1.14-1-1.72-.79,1.31-1.43,2.66-2.1,4-.8,1.59-1.62,3.16-2.44,4.74-.07.15-.16.3-.23.46-.88,2-1.94,3.93-2.93,5.88-.91,1.79-1.79,3.61-2.75,5.38-1.1,2-2.2,4.08-3.17,6.18-.87,1.85-1.84,3.66-2.76,5.48s-1.81,3.61-2.76,5.4c-.88,1.63-1.63,3.34-2.52,5-.59,1.08-1.09,2.19-1.62,3.29a1.35,1.35,0,0,1-1.36.85q-17,0-34,0h-.78c.44-.75.71-1.47,1.11-2.14s.68-1.51,1.09-2.23c.76-1.36,1.38-2.8,2.11-4.18,1.14-2.16,2.19-4.37,3.34-6.52.9-1.7,1.75-3.42,2.61-5.13s1.82-3.62,2.74-5.42S33,262.55,34,260.71c.86-1.6,1.57-3.28,2.46-4.86.54-1,.94-2,1.5-3,.73-1.26,1.26-2.62,2-3.9q1.47-2.69,2.81-5.44c.81-1.68,1.65-3.33,2.5-5s1.5-3.11,2.37-4.6a1.13,1.13,0,0,0,.21-.72c1-2,2-3.93,3-5.9s2-3.9,2.94-5.86c1.11-2.26,2.27-4.51,3.43-6.75q1.35-2.62,2.69-5.27l2.53-5c1-1.91,1.9-3.84,2.93-5.72.09-.16.17-.35.38-.39.83,1.25,1.32,2.68,2.09,4a37.91,37.91,0,0,0,2.08,3.94,4.6,4.6,0,0,1,.39.87c.88,1.77,1.74,3.55,2.67,5.3.55,1.06,1,2.14,1.6,3.2.71,1.37,1.39,2.74,2.07,4.12.29.58.64,1.17,1,1.77.77-1.37,1.43-2.76,2.14-4.11.82-1.54,1.47-3.15,2.39-4.64a3.17,3.17,0,0,0,.23-.45c.9-2,1.93-3.93,2.92-5.88s2-3.8,2.93-5.71a18.62,18.62,0,0,1,1.3-2.36c.25.06.33.26.42.45.59,1.34,1.33,2.61,2,3.91.9,1.73,1.76,3.48,2.65,5.22s1.81,3.37,2.57,5.12c.45,1.06,1.09,2,1.58,3,1.12,2.38,2.41,4.68,3.57,7,.81,1.65,1.64,3.3,2.47,4.95S106.53,231.48,107.38,233.21Z" transform="translate(-9.53 -11.44)"/><path class="cls-2" d="M65.66,198.32c-.79,1.61-1.68,3.17-2.45,4.8-.63,1.33-1.28,2.66-2,3.95-1,1.76-1.81,3.58-2.73,5.36s-1.7,3.35-2.54,5c-.94,1.89-1.93,3.76-2.89,5.63-.8,1.56-1.52,3.16-2.36,4.7s-1.71,3.43-2.62,5.12c-.07.14-.13.27-.3.3-.64-1.39-1.41-2.72-2.09-4.1s-1.21-2.59-1.92-3.82-1.14-2.6-1.9-3.77-1.14-2.51-1.93-3.66c-.55-.79-.77-1.8-1.28-2.62-.83-1.34-1.27-2.88-2.19-4.16a3.76,3.76,0,0,1-.25-.58c-1-2.06-2-4.07-3-6.11-.49-1-.94-2-1.5-3-.7-1.19-1.19-2.47-1.85-3.66-1-1.84-1.95-3.71-2.87-5.59-.8-1.63-1.6-3.26-2.46-4.84a30.59,30.59,0,0,0-2-3.89,11.06,11.06,0,0,1-.8-1.66c-.72-1.47-1.43-2.95-2.21-4.39-.43-.81-.86-1.62-1.26-2.46a1.19,1.19,0,0,1,.69-.07c11.39,0,22.77,0,34.15,0a1.23,1.23,0,0,1,1.22.75c.26.51.46,1,.71,1.56.73,1.47,1.49,2.92,2.24,4.38.65,1.27,1.18,2.61,1.91,3.83.64,1.05,1,2.21,1.66,3.25s1.11,2.31,1.72,3.43c1,1.81,1.87,3.71,2.87,5.53A5,5,0,0,1,65.66,198.32Z" transform="translate(-9.53 -11.44)"/><path class="cls-2" d="M107.38,233.21c-.25-.05-.3-.28-.39-.47-.54-1.19-1.21-2.31-1.78-3.5s-1.27-2.62-1.95-3.9-1.25-2.64-2-3.91c-1-1.84-2-3.74-2.9-5.62-1.1-2.16-2.23-4.31-3.3-6.49-.81-1.65-1.62-3.3-2.47-4.93-1-2-2-4.08-3.14-6.07a14.21,14.21,0,0,1,1.24-2.54.41.41,0,0,0,.07-.11c1-2.06,2-4.16,3.08-6.16a35.2,35.2,0,0,1,2.11-4,5.74,5.74,0,0,0,.39-.87c.92-2,2-3.95,3-5.93.52-1,1-2.12,1.58-3.15a1.24,1.24,0,0,1,1.22-.75c5.72,0,11.45,0,17.17,0H137a16.61,16.61,0,0,1-1.16,2.31c-.93,2.08-2,4.09-3.05,6.1a25.26,25.26,0,0,1-2,3.78,9.63,9.63,0,0,0-.82,1.71c-.8,1.69-1.63,3.38-2.52,5a37.59,37.59,0,0,1-1.91,3.67c-.54.77-.79,1.74-1.27,2.56-.81,1.39-1.3,2.95-2.23,4.28a4.54,4.54,0,0,0-.36.81q-1.4,2.94-2.92,5.81a35.08,35.08,0,0,1-2,3.89c-.52.73-.74,1.67-1.21,2.44-.81,1.35-1.24,2.89-2.18,4.17a3.36,3.36,0,0,0-.24.58c-.95,2.05-2,4-3,6.05a35.54,35.54,0,0,1-1.62,3.2C108,231.86,107.73,232.55,107.38,233.21Z" transform="translate(-9.53 -11.44)"/><path class="cls-3" d="M962,172.88c-3.12-1.24-4.16,2.91-5.82,4.78-9.36,11.64-18.5,23.49-27.64,35.33-8.94,11.43-23.49,11.43-29.72,0,.21-2.49,2.49-2.91,4-4.16,5.61-5.19,12.88-8.93,14.54-17.24,2.71-8.11-.41-14.76-8.72-18.5,0-.21-.21-.42-.21-.62-16.42-11.23-52.58,0-62.76,10.39-3.54,3.74-7.07,7.27-10.81,10.6-1,.83-3.95,1-2.29,3.32s3.33,1,4.78-.41c6-1.87,11.23-5.41,16.84-8.11,1-.42,2.49-2.91,3.74-.21,1.45,1.87.21,3.74-.42,5.2C846.83,219,835.82,245,822.31,269.31c-1.25,2.49-3.95,4.36-2.91,7.69,2.08.83,4.16-1.87,5.61-.42s-.41,3.74-1.24,5.62c-1,2.7-1,2.7,1,4.78,2.08-5,4.37-9.56,9.15-12.47a2.4,2.4,0,0,0,.62-1.67c-.21-5.19,4.57-2.7,6.65-4.15,1.46-.83,2.7-2.08,4.16-2.7,3.74-1.88,7.27-4.78,11.84-3.95l-.41.2c-4.16-.2-7.28,2.71-11,3.75-2.49,1.66-3.32,3.11.42,4.15,7.48-3.12,15.79-3.74,22.44-8.73A293.42,293.42,0,0,0,893.38,244a42.26,42.26,0,0,0,10.81-12.68c2.5-3.33,5.2-4.78,8.31-.83a20.12,20.12,0,0,1-2.91,6c-3.74,5.62-7.48,11.43-11,17.05-3.12,5.19-2.08,8.1,3.12,9.14,4.36-5.2,7.89-10.81,12-16.21,5.82-7.27,10-15.79,17.25-21.61,4.16-1,7.9-4.37,12.47-1.87-.42,6.44-3.12,12.26-5,18.28-3.12,10.6-6.44,21-9.35,31.8-.42,1.87-3.33,5.4,1.66,6.24a42.35,42.35,0,0,0,4.16-10,2.45,2.45,0,0,0,1,2.29c4.78-2.91,3.74-8.52,6.23-12.47h0C948,244,950.54,227.75,958,213.2v-2.08c-.83-3.32,1-6.44,1.45-9.77,1.25-2.49.42-5.4,2.29-7.69a5.93,5.93,0,0,0,.41-1.87,29.14,29.14,0,0,1,2.29-11.22A5.71,5.71,0,0,0,962,172.88Zm-54.58.63a1.92,1.92,0,0,1-2.08.2A3.65,3.65,0,0,0,907.39,173.51Zm-49.26,88.11a56.23,56.23,0,0,1,7.69-4.36A78.22,78.22,0,0,0,858.13,261.62Zm30.14-29.93c-5,7.07-12.27,11.44-19.33,16-9.35,5.82-18.7,11.64-29.51,14.75-.62-3.32,1.45-5.82,2.91-8.52,2.08-4.36,4.78-8.73,6.44-13.3,2.7-7.27,7.07-12.26,15.38-13.09,3.74-.83,7.27-2.5,11-3.53s7.28-2.71,10.6.2C890.55,225.46,891,228,888.27,231.69ZM862.7,214.24c.63-6.44,3.75-12.06,6.24-17.87,1.66-3.54,3.53-7.07,4.78-10.6s3.74-6.24,8.31-5.41h0c4.78.63,9.56-2.7,14.34-.2,1.87,2.91,6.86,1.66,7.48,5.4s-3.32,5.61-5.19,7.69A53.41,53.41,0,0,1,862.7,214.24Zm82.51-2.08c-1.46,1.25-2.91,2.7-4-.42,1.46-4.15,3.33-7.69,7.69-9.35-.42,3.54-.83,7.28-3.74,9.77Z" transform="translate(-9.53 -11.44)"/><path class="cls-3" d="M1130.79,234.19c-4-2.91-7.89.41-11.64,0-1.24,0-3.32,1.45-3.11-1.66-11.23,1.24-22.45,3.32-33.67,3.32.62-3.32,2.49-6,3.12-9.35a16.32,16.32,0,0,1,2.49-6.24,257.74,257.74,0,0,0,16.42-42.6c-.21-1.25-.83-2.49-.42-3.53,2.91-7.9-1.24-10-6.44-9.56-13.51.62-27,.62-40.11,4.78h0a50,50,0,0,1-5.61,0,12.31,12.31,0,0,0-12.47,6.65c-2.7,4.36-2.49,9.14-5,13.51-7.69,14.75-14.75,29.92-21,45.3-.62,1.66-1.24,3.95-2.7,4.78A5,5,0,0,0,1008,246a4.54,4.54,0,0,0,2.29,2.5c5.61,2.7,6,6.86,4.57,12.26a6.5,6.5,0,0,0,3.32-6.23c1.46-2.91,1.67-7.28,6.24-7.28,9.77.21,18.91-3.12,28.68-2.7,6,.21,10.8-5.2,17-4.16,1.66.21,3.12.83,3.53,2.91a108.62,108.62,0,0,0,16.42-.62,4.31,4.31,0,0,0-.83,1.25c3.32.83,6.65-.42,10,1.24,2.71-.83,5.41-.83,8.11-1.66,2.28-.62,4.78,0,7.06-1.45,1-.63-1.66-2.08.42-1.46a21.72,21.72,0,0,0,8.94,0c4-.41,8.52-.62,10.8-4.78C1134.33,234.19,1131.83,235.44,1130.79,234.19Zm-69.41-63.59a7.77,7.77,0,0,1-2.29-.21A7.77,7.77,0,0,0,1061.38,170.6Zm13.3,61c-1.87,4.78-4.36,5.82-8.73,5.41-1.66-.42-3.74,0-4.78-1.87-5-1.87-10-.84-15-.42-6.44.42-12.89,1.66-19.33.83.21-8.1,5.82-14.34,8.11-21.61.62-1.87,2.91-1.87,4.78-2.29,8.1-1.24,16-3.32,24.31-3.74a6.72,6.72,0,0,0,5.41-2.49c2.9-5.2,2.28-6.24-3.75-6.24h-23.48c-1.45-4.15,2.91-6.23,3.33-9.76a29.55,29.55,0,0,1,5-5.2c1.67-4.57,6.24-4.78,10-6a36.39,36.39,0,0,1,6.44-1.45,93.63,93.63,0,0,0,15-2.5c3.12-1.87,7.69-.62,10.19-4.36.62-1,2.7-.62,3.74.83-.42,10.6-6.24,19.33-10.18,28.68-4.16,10.81-6.65,21.82-11,32.21Zm17.25,11.23H1094C1093.59,243.27,1092.76,243.06,1091.93,242.86Z" transform="translate(-9.53 -11.44)"/><path class="cls-3" d="M1021.48,178.49c-4.37-.83-4.37-.83-4-2.49a19.65,19.65,0,0,0-12.26-3.33c-16.83.84-31.38,6.45-41.57,20.58a2.15,2.15,0,0,0,1.46.83,23.84,23.84,0,0,0,8.31-3.33c1.87-1.24,3.95-3.74,6.86-2.07a16.4,16.4,0,0,1-2.08,8.31c-7.89,18.29-15.79,36.78-25.56,54.45-.83,1.45-2.91,4.15-.83,4.78,4.36,1.24,2.08,4.15,2.7,6.44,3.74-1.66,4.16-6.86,8.52-7.9a5.15,5.15,0,0,1,4.16-2.91,6.25,6.25,0,0,0,4-2.91c2.49-3.53,6.65-3.32,10.39-4.78S987,240,990.1,239c-1,1.45-4.78,1-3.74,4.57a3.63,3.63,0,0,0,2.49.83c6.86-3.32,12.47-8.31,18.5-12.88a27.65,27.65,0,0,0,8.73-10.81c2.28-2.08.83-4.36,0-6.23-1.25-2.29-2.71-4.58-4.16-6.86.62-3.12,3.53-4.37,5.82-6a20.47,20.47,0,0,0,8.31-14.13C1026.88,183.27,1024.8,180.57,1021.48,178.49ZM1003,222.34a95.23,95.23,0,0,1-35.53,21.2,70,70,0,0,1,10.39-22.65c2.7-4.37,22.23-7.28,27.22-4.78a6.82,6.82,0,0,1-2.08,6.23ZM1013,192a53.73,53.73,0,0,1-27.43,17c.41-2.7.62-5.19,1-7.48,2.9-4.57,4.57-10,7.06-14.75,1-2.29,2.29-4.37,5.4-3.95,4.37.41,8.73-1,12.89,1S1016.49,187.64,1013,192Z" transform="translate(-9.53 -11.44)"/><path class="cls-4" d="M417.76,234.81c2.08-7.69,3.74-13.71,5.2-19.74,2.28-9.35,2.28-9.35,12.88-8.11-3.74,12.06-7.06,23.9-11,36-1.46,4.57-5.82,1.66-8.73,2.28-2.49.42-3.74-.62-4.36-3.11-1.88-7.07-4.16-13.93-6.65-22.45-2.5,8.52-4.58,15.17-6.45,22-.83,2.7-1.87,4.16-4.57,3.53s-7.07,2.29-8.52-2.49c-3.74-11.85-7.27-23.9-10.81-35.75,10.39-1,10.39-1,12.68,8.32,1.66,6,3.12,11.84,5.2,19.32,2.49-8.52,4.78-15.58,6.44-22.86.83-3.94,2.28-5.19,6.44-5.4,4.78-.21,5.4,2.29,6.24,5.82C413.19,219,415.27,226.08,417.76,234.81Z" transform="translate(-9.53 -11.44)"/><path class="cls-4" d="M520,217.56a18.41,18.41,0,0,0-16.42-12.26c-4.78-.21-8.73,1.66-13.3,4.57,0-5.19-.21-9.76,0-14.13.21-3.74-.62-5.19-4.78-5-3.53.21-5.61.42-5.4,5,.41,14.55,0,29.3.21,43.85,0,5.2,4.57,8.11,8.52,5,2.07-1.66,2.7-1.45,4.57-.62a18.59,18.59,0,0,0,21-2.08C520.84,236.68,523.13,226.08,520,217.56Zm-19.54,20.37c-6.23-.21-10.18-5-10-12.26s4.36-11.85,10.6-11.64c6,.21,10.39,5.4,10.39,12.26S506.5,237.93,500.47,237.93Z" transform="translate(-9.53 -11.44)"/><path class="cls-4" d="M562.61,213.35c-5.82-7.49-14.75-8.94-24.52-4.16-1.25.62-1.87,1.87-3.12-.42-1.66-3.11-5.19-1.45-7.69-1s-1.24,3.12-1.24,4.78c0,14.76,0,29.72-.21,44.48,0,3.74,1.45,4.15,4.36,3.95s6.24,1,5.82-3.74c-.19-4.07,0-8.31,0-12.4l1.65-.91c9.36,5.41,18.51,4.58,24.12-2.07C568.22,233.09,568.43,221.66,562.61,213.35ZM546.4,237.93c-6.23,0-10.6-4.78-10.8-11.85S540,214,546,213.82s10.6,4.57,10.6,11.85S552.43,237.72,546.4,237.93Z" transform="translate(-9.53 -11.44)"/><path class="cls-4" d="M679.41,207.17c-2.7,4-5.82,7.69-8.94,11.43-4.16,4.16-3.74,7.28-.21,11.64s6.65,9.35,10.39,14.76c-6.44.83-11.63,2.07-15-5-2.28-5.2-6-9.35-10.18-15.59,0,6.86-.21,11.85,0,16.83.21,4.37-2.5,3.95-5.2,3.95s-5,0-5-4.15c.21-15.38.21-31,0-46.35,0-4.36,2.29-3.95,5-3.95s5.41-.41,5.2,3.95c-.21,8.94,0,17.88,0,28.68,2.7-3.32,5.4-6.65,7.9-10.39C666.94,207.38,671.72,204.89,679.41,207.17Z" transform="translate(-9.53 -11.44)"/><path class="cls-4" d="M603.68,240.61a85.75,85.75,0,0,1,0-10.39v-8.44c0-13-6.92-19.05-19.7-17.32a55.28,55.28,0,0,0-8.65,2.17c-2,.65-5.42.65-3.47,4.54,1.3,2.38,2.17,5.2,6.06,3a14.49,14.49,0,0,1,10.83-.86,5.76,5.76,0,0,1,4.54,6.49v.43c-.86,3.9-3.46-.43-5.19.22-1.09.43-2.6-.43-3.9-.43-6.28,0-11.69,1.95-14.72,7.58A11.75,11.75,0,0,0,571,241.48a14.65,14.65,0,0,0,15.8,5,20.6,20.6,0,0,1,11.47-.65C602.17,247.11,604.12,245.16,603.68,240.61Zm-17-1.64c-4.16,0-7.48-1.66-7.27-6s3.32-5.82,7.48-5.82,6.65,1.87,6.86,5.82C593.79,237.31,590.67,239,586.72,239Z" transform="translate(-9.53 -11.44)"/><path class="cls-4" d="M463.48,205.66a19.64,19.64,0,0,0-23.69,8.52,22.35,22.35,0,0,0,3.74,26.18c6.44,6,18.91,6.86,26.6,1.46,1.67-1.25,5.2-2.5,2.91-5.41-1.87-2.28-4-4.78-8.1-1.45a10.92,10.92,0,0,1-15.38-1.66h0a.21.21,0,0,0-.21-.21,5.34,5.34,0,0,1-1.45-4.57c.62-2.29,2.7-1.25,4.15-1.25,3.12-.21,6.24,0,9.35,0h11.23a2.88,2.88,0,0,0,2.86-2.5A17.7,17.7,0,0,0,463.48,205.66Zm1.67,14.6c-.42,3.75-3.95,1-6.24,1.88a5.24,5.24,0,0,1-2.49,0l-8.32-1.67c-.41-2.7,1.87-5,4.16-6.23a8.75,8.75,0,0,1,7.9-.42c2.91,1.25,5.19,3.54,5,6.44Z" transform="translate(-9.53 -11.44)"/><path class="cls-5" d="M327.78,209c-8.73,5-16.63,9.56-24.32,14.13a4,4,0,0,1-4.57-.2c-7.69-4.58-15.38-8.94-24.11-13.93,8.94-5,17-9.35,25.36-13.92,1.45-.83,2.91,0,4.15.83Z" transform="translate(-9.53 -11.44)"/><path class="cls-5" d="M272.21,212.66l24.06,13.71a4.61,4.61,0,0,1,3,4.23v25.75c-8.87-4.86-16.89-9.29-25.12-13.72a3.55,3.55,0,0,1-1.9-3.59Z" transform="translate(-9.53 -11.44)"/><path class="cls-5" d="M303.38,256.52V230.57a4,4,0,0,1,2.34-4c7.87-4.46,15.75-8.93,24.68-14v27.66c0,2.13-1.49,2.76-3,3.61Z" transform="translate(-9.53 -11.44)"/><path class="cls-4" d="M638.47,217.15c-8.11-4.57-12.68-4.37-17,0a12.08,12.08,0,0,0,13.3,19.95c1.87-.83,3.74-3.12,4.78.62.83,2.7,2.28,5.2-1.87,6.86-8.32,3.74-19.54,1.87-25.15-4.78a21,21,0,0,1-.42-26.6,21.35,21.35,0,0,1,25.36-5.4C644.29,210.5,638.47,213.82,638.47,217.15Z" transform="translate(-9.53 -11.44)"/><path class="cls-6" d="M299.23,172.67v15.17c0,2.71-2.08,3.95-4,5-7.27,3.95-14.55,7.9-21.61,12.06a5,5,0,0,1-6.24,0c-3.53-2.5-7.48-4.58-12.26-7.49Z" transform="translate(-9.53 -11.44)"/><path class="cls-6" d="M299.23,279.49c-13.93-7.89-26.81-15.17-39.9-22.23-2.29-1.25-2.5-2.5-.21-3.95,3.74-2.29,7.48-4.37,11.22-6.44,1.66-1,2.7,0,4,.62,7.27,3.95,14.55,8.1,21.82,11.85a5.45,5.45,0,0,1,3.12,5.4Z" transform="translate(-9.53 -11.44)"/><path class="cls-6" d="M347.52,197.61c-4.78,2.91-8.73,5-12.47,7.48a5,5,0,0,1-5.82,0c-7.27-4.15-14.75-8.31-22.24-12.26a6.4,6.4,0,0,1-3.74-5.82c.21-4.36,0-8.52,0-13.92Z" transform="translate(-9.53 -11.44)"/><path class="cls-6" d="M303.25,279.29c0-5.62.21-10.4,0-15a5.11,5.11,0,0,1,3.54-5.19c7.06-3.74,14.13-7.69,21.19-11.64a3.75,3.75,0,0,1,4.58-.21c3.94,2.91,8.93,4.37,13.3,8.31Z" transform="translate(-9.53 -11.44)"/><path class="cls-6" d="M349.1,203.4v43c0,2.79-.39,4-3.78,2.6-10-4.39-10.76-5.58-10.76-16.15v-10C334.76,209.58,335.35,208.78,349.1,203.4Z" transform="translate(-9.53 -11.44)"/><path class="cls-7" d="M253.71,202.33c4.3,2.46,8,4.71,11.89,6.76a4.54,4.54,0,0,1,2.45,4.51v26.22a4.68,4.68,0,0,1-2.86,4.92c-3.69,2-7.38,4.1-11.68,6.56Z" transform="translate(-9.53 -11.44)"/><path class="cls-4" d="M754.43,212.78c4.16.21,4,2.71,3.74,4.58-.83,5.19.83,7.68,6.44,6.65,2.08-.42,4.37-.21,4.37,2.7s-2.08,3.74-4.37,3.32c-5.82-1-7.27,1.66-6.44,6.65.21,1.87.42,4.37-2.7,4.57-3.53.21-3.53-2.28-3.33-4.57.84-5.19-.83-7.69-6.44-6.65-2.08.42-4.36.21-4.36-2.7s2.08-3.74,4.36-3.32c5.61,1,7.28-1.46,6.44-6.65C751.94,214.86,751.94,212.37,754.43,212.78Z" transform="translate(-9.53 -11.44)"/><path class="cls-4" d="M187.09,244.79c-2.28.21-2.49-2.08-2.28-4.16.62-5.19-.63-8.31-6.65-7.06-2.29.41-4.16,0-4.37-2.91,0-3.33,2.29-3.54,4.57-3.12,5.2.83,7.07-1,6.24-6.24-.42-2.07-.83-5,2.91-5,4.15,0,3.32,3.11,3.12,5.19-.63,5,1.45,6.44,6,5.82,2.29-.41,4.78-.41,4.78,2.91s-2.28,3.53-4.57,3.12c-5.2-.83-7.07,1-6.23,6.23C191,242.09,191.66,244.79,187.09,244.79Z" transform="translate(-9.53 -11.44)"/><path class="cls-8" d="M989.47,242.71c9.56-6.86,20-13.09,27-22.65a5,5,0,0,1-1.66,5,85.43,85.43,0,0,1-34.08,23.9c-1.25.42-2.5.63-3.12-1C980.54,244.16,985.11,243.54,989.47,242.71Z" transform="translate(-9.53 -11.44)"/><path class="cls-9" d="M868.11,261.21c8.93-6.65,18.08-13.1,26.81-20a32.59,32.59,0,0,0,8.1-10.18c1-.41,1.66.21,1.46,1.25A50.84,50.84,0,0,1,887.64,250c-6,4.16-11.84,8.11-17.66,12.26C868.94,262.45,868.11,262.66,868.11,261.21Z" transform="translate(-9.53 -11.44)"/><path class="cls-10" d="M1084.86,227.12c.63-6.86,5-12.05,7.28-18.08,4.15-10.39,8.1-21,12.26-31.38-1,11.22-6.44,21.2-10.18,31.38-2.5,6.65-6.86,12.47-8.32,19.54C1084.86,228.79,1084.24,228.58,1084.86,227.12Z" transform="translate(-9.53 -11.44)"/><path class="cls-11" d="M1018.57,254.56c-.21-5.82,2.49-8.32,8.31-8.73,8.94-.42,18.08-1.46,27-2.08,1.66,1,3.74-.42,5.19,1-9.56,1.24-19.12,2.91-28.88,3.32C1024.8,248.53,1020.86,249.78,1018.57,254.56Z" transform="translate(-9.53 -11.44)"/><path class="cls-12" d="M900.94,263.28c7.9-13.09,17.46-25.14,26.6-37.4.42-.63,1.87-.84,2.71-1.25a1.62,1.62,0,0,1,.41,1c0,.41-.21.41-.21.41-9.35,10.19-16.41,22.45-25.14,33.26C904.27,261,903.85,263.49,900.94,263.28Z" transform="translate(-9.53 -11.44)"/><path class="cls-13" d="M941.68,259.75c.2-8.1,4.78-15.17,6.44-22.86,1.25-5.82,3.32-11.43,5-17a12,12,0,0,1,4.36-5.82c.42,5-3.32,8.31-4.57,12.68C949.57,237.72,947.5,249.36,941.68,259.75Z" transform="translate(-9.53 -11.44)"/><path class="cls-14" d="M1106.89,243.33c7.9-3.74,16.84-2.7,24.94-5.61,1-.41,2.5-.21,3.12-1.45,2.7,3.32-.42,3.74-2.5,4.15-7.06,1.46-14.33,2.91-21.4,4.37C1109.8,243.75,1107.93,245,1106.89,243.33Z" transform="translate(-9.53 -11.44)"/><path class="cls-15" d="M868.11,261.21l1.87,1c-9.56,6.24-20.78,7.9-30.76,12.47-2.49-1.24-.62-2.28.21-3.11,1.87-1.67,4.36-1,6.44-1.87C853.14,266.82,861,265.36,868.11,261.21Z" transform="translate(-9.53 -11.44)"/><path class="cls-16" d="M898,213c-2.28-2.49.63-3.32,1.67-4.16,6.85-4.78,13.09-10,16.83-17.45a12.27,12.27,0,0,1-4.78,10.6A136.91,136.91,0,0,1,898,213Z" transform="translate(-9.53 -11.44)"/><path class="cls-17" d="M836.52,196.37c.83-4.58,5.82-1.87,8.31-4.58,2.91-3.32,7.48-4.57,11.64-6.23.83-.42,2.08-1.25,2.49,0s-1.24,1.87-1.87,2.7a31.16,31.16,0,0,0-6,2.49C846.49,193.46,842.13,196.57,836.52,196.37Z" transform="translate(-9.53 -11.44)"/><path class="cls-18" d="M1012.33,207c-3.32-2.28,0-3.11,1-3.74,6.24-4.15,11-9.14,12.89-16.41,1.25,7.06-2.7,11.43-7.9,15.17C1016.28,203.64,1014.21,205.3,1012.33,207Z" transform="translate(-9.53 -11.44)"/><path class="cls-19" d="M1131,234.19c-6-.21-11.64,2.7-18.08,1.25l3.32-2.71c3.12-.41,6.45-.83,9.77-1C1127.88,231.28,1130.58,230.66,1131,234.19Z" transform="translate(-9.53 -11.44)"/><path class="cls-20" d="M1073.85,243.54a143.23,143.23,0,0,1,24.94-1.66c-3.33,2.91-6.65,1-9.15,2.28l-13.3,1.46C1074.89,245.83,1074.27,245,1073.85,243.54Z" transform="translate(-9.53 -11.44)"/><path class="cls-21" d="M965.16,192.83c4.57-2.28,9.14-4.36,13.72-6.65.83-.41,1.87-1.45,2.49,0,.21.42-.62,1.46-1,2.08-5.19.62-8.31,6.44-13.92,6.24C965.16,194.29,964.74,193.87,965.16,192.83Z" transform="translate(-9.53 -11.44)"/><path class="cls-22" d="M846,269.73c-1.66,2.49-6.44.62-6.65,5a2,2,0,0,1-2.28.83c-1-.83-2.91.42-3.75-1v-1c1-3.74,5.82-2.29,7.49-5.41a3.92,3.92,0,0,1,3.74-2.28,2.26,2.26,0,0,1,1.66,1.66C847,268.27,841.43,268.48,846,269.73Z" transform="translate(-9.53 -11.44)"/><path class="cls-13" d="M935.23,272.84c3.33-3.74,2.91-9.56,6.65-13.09-.2,6.65-3.94,12.05-6.65,19.54l-1-4.58A1.59,1.59,0,0,1,935.23,272.84Z" transform="translate(-9.53 -11.44)"/><path class="cls-23" d="M904.48,232.32,903,231.07c2.5-3.95,6.86-5,10.18-2.28,1.25,1-1,1.24-1,2.28C909.46,231.28,906.76,230.86,904.48,232.32Z" transform="translate(-9.53 -11.44)"/><path class="cls-24" d="M1059.09,245c-1.66-.42-3.74.41-5.19-1,4.57.2,7.9-4.58,12.68-3.74,1.24.2,2.91-.84,3.94.83C1067.41,244.16,1062.21,241.46,1059.09,245Z" transform="translate(-9.53 -11.44)"/><path class="cls-25" d="M833.19,274.3l3.74,1c-7.89.2-8.52,8.1-12.88,11.84C824.26,281.16,827.79,277,833.19,274.3Z" transform="translate(-9.53 -11.44)"/><path class="cls-26" d="M931,226.29v-1.45c2.91-2.29,6.65-2.29,10-3.74,2.07-.84,2.7.83,2.49,2.7C939.11,223.38,935.36,225.88,931,226.29Z" transform="translate(-9.53 -11.44)"/><path class="cls-27" d="M935.23,272.84a9,9,0,0,0-1,1.87c-1.87,1.46-1.45,4.16-3.74,5.2L935,265.15l1,.21C935.65,268.06,935.44,270.35,935.23,272.84Z" transform="translate(-9.53 -11.44)"/><path class="cls-28" d="M977.84,247.7l2.91,1-15.38,6c-.63-1.45.21-2.28,1.24-3.11C970.36,250.81,972.85,245.83,977.84,247.7Z" transform="translate(-9.53 -11.44)"/><path class="cls-29" d="M954.56,261.83c2.7-2.7,2.91-7.9,8.11-8.31,1,1.45-.21,1.87-1,2.49-2.91,1.66-3.12,5.61-6.24,7.27-.21,0-.41,0-.41-.2A3,3,0,0,1,954.56,261.83Z" transform="translate(-9.53 -11.44)"/><path class="cls-30" d="M1021.48,177.87c-2.91,2.08-5.4.21-8.31-1,1.24-1.87,2.91-1.25,4.36-1.45A6.74,6.74,0,0,1,1021.48,177.87Z" transform="translate(-9.53 -11.44)"/><path class="cls-31" d="M1106.89,243.33c1.46.42,2.91,0,4.16,1.25-3.74.21-7.48,2.29-11.43,1C1101.28,242.29,1104.4,243.54,1106.89,243.33Z" transform="translate(-9.53 -11.44)"/><path class="cls-32" d="M961.42,255.8c.41-.83,1.45-1.24,1-2.49,0-2.7,1.25-3.95,3.95-3.53a1.63,1.63,0,0,1,0,2.28h0l-1.46,2.7A3.54,3.54,0,0,1,961.42,255.8Z" transform="translate(-9.53 -11.44)"/><path class="cls-33" d="M964.87,193a10.71,10.71,0,0,1,1.25,1.66c-1.25,1.46-2.49,2.7-4.78,2.08a2.51,2.51,0,0,1-1.25-2.7v-.63c.84-.83-.2-2.91,2.08-2.7l1.25,2.29Z" transform="translate(-9.53 -11.44)"/><path class="cls-34" d="M962.46,190.34l-2.08,2.7c.62-3.95,0-8.31,3.33-11.43C963.5,184.52,962.87,187.43,962.46,190.34Z" transform="translate(-9.53 -11.44)"/><path class="cls-35" d="M1084.86,227.12l1,1.46a18.78,18.78,0,0,1-3.53,7.06C1079.46,231.9,1084.45,230.24,1084.86,227.12Z" transform="translate(-9.53 -11.44)"/><path class="cls-36" d="M957.47,212c-2.7-3.53.62-6.65.83-10,1-.21,1.66,0,1,1.24C958.51,205.93,958.09,208.83,957.47,212Z" transform="translate(-9.53 -11.44)"/><path class="cls-37" d="M959.13,202.81c-.41-.42-.62-.83-1-1.25,1-2.7.21-5.61,2.29-8.1,1,.62,1,1.66,1.25,2.7C959.34,198.24,961,201.15,959.13,202.81Z" transform="translate(-9.53 -11.44)"/><path class="cls-38" d="M864.16,228.58c-7.9.62-12,5.4-14.76,12.26-2.91,7.27-6.65,14.34-10.18,21.61-1.45.42-2.7.63-1.66-1.45,5-10.19,10-20.16,15.17-30.14,1.66-3.32,5.82-2.28,8.73-3.53C862.91,227.12,864.37,226.5,864.16,228.58Z" transform="translate(-9.53 -11.44)"/><path class="cls-39" d="M882.24,180.36c-5.2.83-7.07,4.58-8.94,8.73-3.32,8.31-7.06,16.63-10.6,25.15-2.7-4.16,1-7.28,2.29-10.6a152.08,152.08,0,0,1,9.35-20.57C875.8,179.74,878.29,177.45,882.24,180.36Z" transform="translate(-9.53 -11.44)"/><path class="cls-40" d="M845.87,267.23l-1.66-1.66c3.95-2.08,6.65-7.69,12.47-3.74a1.15,1.15,0,0,1,.62,1h0C853.14,263.91,850,267,845.87,267.23Z" transform="translate(-9.53 -11.44)"/><path class="cls-41" d="M857.09,263.08a1.55,1.55,0,0,0-.41-1c4.78-4.78,11.43-6.45,17.25-9.77C869.56,257.67,862.7,259.34,857.09,263.08Z" transform="translate(-9.53 -11.44)"/><path class="cls-42" d="M896.58,180.36c-4.78-.2-9.56,2.91-14.34.21C887,178.7,891.8,176.41,896.58,180.36Z" transform="translate(-9.53 -11.44)"/><path class="cls-43" d="M949,202.39c-2.49,3.12-5.2,6.24-7.69,9.35-.83-.2-2.08-.41-1.66-1a56.48,56.48,0,0,1,8.31-10.4C950,198.44,948.53,201.56,949,202.39Z" transform="translate(-9.53 -11.44)"/><path class="cls-44" d="M840.47,268.06c2.08,2.08-.42,2.08-1.25,2.71a54.26,54.26,0,0,1-6,2.7c-2.91-3.12-.62-4.16,2.08-4.78Z" transform="translate(-9.53 -11.44)"/><path class="cls-45" d="M885.77,224.42a19.68,19.68,0,0,0-11.43.83c-1.24.63-2.49,1-2.49-1C876.42,222.76,881.2,219,885.77,224.42Z" transform="translate(-9.53 -11.44)"/><path class="cls-46" d="M871.85,224l2.49,1-10.18,3.54-2.7-1.25Z" transform="translate(-9.53 -11.44)"/><path class="cls-47" d="M907.8,173.09c-.83,2.7-2.49,2.7-6.86-.42,2.5-1.45,4.78,1,6.86.42Z" transform="translate(-9.53 -11.44)"/><path class="cls-48" d="M1069.69,206.55c2.29,2.7-.41,2.49-1.66,2.7-8.1,1.25-16.21,2.91-24.31,3.74-5.2.62-8.52,2.29-10.19,7.69s-4.36,10.6-6.44,15.79c-1.25.21-2.08,0-1.45-1.45,2.9-6.86,5.81-13.51,8.72-20.37,1-2.49,3.33-2.7,5.61-3.11l26.81-4.16A21.09,21.09,0,0,1,1069.69,206.55Z" transform="translate(-9.53 -11.44)"/><path class="cls-49" d="M1096.09,172.05c-4.78,1.25-8.73,4.78-13.72,4.78-1.45.83-2.49.83-2.49-1.25,3.74-3.11,9.14-2.49,12.88-5.82a2.11,2.11,0,0,1,3.12.42A2.82,2.82,0,0,1,1096.09,172.05Z" transform="translate(-9.53 -11.44)"/><path class="cls-50" d="M1079.88,175.38c.41,1,1.45,1.24,2.49,1.24-5,1-9.56,3.33-14.75,2.5a1.35,1.35,0,0,1-.42-1.87.21.21,0,0,1,.21-.21C1071.15,173.3,1075.51,174.75,1079.88,175.38Z" transform="translate(-9.53 -11.44)"/><path class="cls-51" d="M1067.41,177l.2,2.08c-5.61,2.07-12.88.62-16.41,7.48-1.25.21-1.67-.42-1.25-1.46,1.45-5.82,6.86-5.61,11-7.06A31.83,31.83,0,0,1,1067.41,177Z" transform="translate(-9.53 -11.44)"/><path class="cls-52" d="M1057.43,170.12h8.94c-2.91,1.87-6,5.19-8.94,0Z" transform="translate(-9.53 -11.44)"/><path class="cls-53" d="M1061.38,235.85a6.93,6.93,0,0,1,4.78,1.87c-3.74,1.46-7.48.83-11.43.21Z" transform="translate(-9.53 -11.44)"/><path class="cls-54" d="M1099.2,175c1-2.29-.62-6,4-6.65A8.67,8.67,0,0,1,1099.2,175Z" transform="translate(-9.53 -11.44)"/><path class="cls-55" d="M1046.83,190.55l-4.15,9.76c-3.33-4.36,2.28-6.44,2.49-10a1.09,1.09,0,0,1,1.66.21Z" transform="translate(-9.53 -11.44)"/><path class="cls-56" d="M1106.06,236.47c-2.49,1.46-4.78,2.91-8.1,1.25C1100.66,235.23,1103.57,236.47,1106.06,236.47Z" transform="translate(-9.53 -11.44)"/><path class="cls-57" d="M1046.83,190.9h-1.66c.83-2.29,1.87-4.57,4.78-5.19l1.25,1.45Z" transform="translate(-9.53 -11.44)"/><path class="cls-58" d="M1005.06,216.32c-5.4-2.5-10.18.83-15.38,1.24-10.18,1-13.92,7.69-17.25,15.59-1.45,3.53-3.11,7.07-4.78,10.6-1.45.41-2.7.41-1.66-1.46,3.53-7.27,7.07-14.34,10.81-21.61a4,4,0,0,1,2.08-2.08c8.31-1.45,15.58-6.86,24.52-5.19C1006.1,214,1004.23,215.49,1005.06,216.32Z" transform="translate(-9.53 -11.44)"/><path class="cls-59" d="M966.33,252.06v-2.28a4.78,4.78,0,0,0,3.74-2.5c3.33-2.08,7.27-2.49,10.81-4.15,1.66,0,2.91-2.29,5-1l3.33.41a38.53,38.53,0,0,1-11.64,5Z" transform="translate(-9.53 -11.44)"/><path class="cls-60" d="M1011.71,182.59H997.58c-.62-.63-2.08-.21-2.49-1.25C1000.7,180.72,1006.52,177.6,1011.71,182.59Z" transform="translate(-9.53 -11.44)"/><path class="cls-61" d="M995.09,181.61l2.49,1.25c-4.78,2.49-5,7.89-7.27,12-1.25,2.08-1.25,4.78-3.95,5.82A63.8,63.8,0,0,1,995.09,181.61Z" transform="translate(-9.53 -11.44)"/><path class="cls-62" d="M981.58,243.75a21.78,21.78,0,0,1-11.22,3.53c2.49-4.36,7.06-4.15,11.22-5C982.2,242.92,982.2,243.33,981.58,243.75Z" transform="translate(-9.53 -11.44)"/><path class="cls-63" d="M980.88,243.75v-1.46L993.14,235c-2.08,4.78-6,4.57-7.9,7.07Z" transform="translate(-9.53 -11.44)"/><text x="-9.53" y="-11.44"/><text class="cls-64" transform="translate(40.2 136.86) scale(0.85 1)">VUE 3</text><text class="cls-64" transform="translate(42.43 304.9) scale(0.85 1)">VUEX</text><text class="cls-64" transform="translate(3.89 457.65) scale(0.85 1)">VUE ROUTER</text><path class="cls-65" d="M95.33,359A16.53,16.53,0,1,1,78.8,342.41,16.53,16.53,0,0,1,95.33,359Z" transform="translate(-9.53 -11.44)"/><path class="cls-1" d="M138.56,387a16.35,16.35,0,0,1-9.09,4.82A36.81,36.81,0,0,0,113,399.26a40.27,40.27,0,0,0-10,12.44,89.73,89.73,0,0,0-7.25,18.91,40,40,0,0,1-1.59,5.62,16.18,16.18,0,0,1-12.48,10,15.88,15.88,0,0,1-13-3.28,16.48,16.48,0,0,1-6-9.64A101,101,0,0,0,59,421.54a64.63,64.63,0,0,0-7-14.16A36,36,0,0,0,30,392.16a28.59,28.59,0,0,1-5.91-1.67c-5.61-2.74-8.93-7.17-9.59-13.41a16.41,16.41,0,0,1,11.26-17.34,16.66,16.66,0,0,1,2.53-.61A14,14,0,0,1,30.5,359a16.5,16.5,0,0,1,16.63,13.69c.54,3.19,1,6.4,1.84,9.53a42.16,42.16,0,0,0,6.37,14.19,35.3,35.3,0,0,0,8.81,8.12,26.18,26.18,0,0,0,9.72,4.12A23.17,23.17,0,0,0,87,407.69a32.52,32.52,0,0,0,19-17.7,56.13,56.13,0,0,0,4.18-15,20.12,20.12,0,0,1,2.34-7.8,16.55,16.55,0,0,1,25.9-3.46,15.81,15.81,0,0,1,4.84,10.34A16.06,16.06,0,0,1,138.56,387Z" transform="translate(-9.53 -11.44)"/><path class="cls-2" d="M95.33,359A16.53,16.53,0,1,1,78.8,342.41,16.53,16.53,0,0,1,95.33,359Z" transform="translate(-9.53 -11.44)"/></svg>